<?xml version="1.0" encoding="UTF-8" standalone="no"?>
<!DOCTYPE svg PUBLIC "-//W3C//DTD SVG 1.1//EN" "http://www.w3.org/Graphics/SVG/1.1/DTD/svg11.dtd">
<svg width="100%" height="100%" viewBox="0 0 1080 460" version="1.1" xmlns="http://www.w3.org/2000/svg" xmlns:xlink="http://www.w3.org/1999/xlink" xml:space="preserve" xmlns:serif="http://www.serif.com/" style="fill-rule:evenodd;clip-rule:evenodd;stroke-linecap:round;stroke-linejoin:round;stroke-miterlimit:1.5;">
    <g transform="matrix(0.963981,0,0,0.964044,-6.8813,-272.226)">
        <g transform="matrix(0.910328,0,-2.77556e-17,0.974728,58.5568,-12.9003)">
            <rect x="14.331" y="302.936" width="53.798" height="199.29" style="fill:rgb(147,252,255);"/>
        </g>
        <g transform="matrix(0.910328,0,-2.77556e-17,0.974728,152.113,-12.9003)">
            <rect x="14.331" y="302.936" width="53.798" height="199.29" style="fill:rgb(147,252,255);"/>
        </g>
        <g transform="matrix(0.910328,0,0.469447,0.974728,-83.6555,-12.9003)">
            <rect x="14.331" y="302.936" width="53.798" height="199.29" style="fill:rgb(147,252,255);"/>
        </g>
        <g transform="matrix(0.910328,0,0.469447,0.974728,9.90077,-12.9003)">
            <rect x="14.331" y="302.936" width="53.798" height="199.29" style="fill:rgb(147,252,255);"/>
        </g>
        <g transform="matrix(0.910328,0,-2.77556e-17,0.974728,455.74,-12.9003)">
            <rect x="14.331" y="302.936" width="53.798" height="199.29" style="fill:white;"/>
        </g>
        <g transform="matrix(0.910328,0,-2.77556e-17,0.974728,443.615,206.997)">
            <rect x="14.331" y="302.936" width="53.798" height="199.29" style="fill:rgb(187,255,195);"/>
        </g>
        <g transform="matrix(0.910328,0,-2.77556e-17,0.974728,549.297,-12.9003)">
            <rect x="14.331" y="302.936" width="53.798" height="199.29" style="fill:white;"/>
        </g>
        <g transform="matrix(0.910328,0,-2.77556e-17,0.974728,606.796,-12.9003)">
            <rect x="14.331" y="302.936" width="53.798" height="199.29" style="fill:white;"/>
        </g>
        <g transform="matrix(0.910328,0,-2.77556e-17,0.974728,597.551,206.997)">
            <rect x="14.331" y="302.936" width="53.798" height="199.29" style="fill:white;"/>
        </g>
        <g transform="matrix(0.910328,0,-2.77556e-17,0.974728,729.47,206.997)">
            <rect x="14.331" y="302.936" width="53.798" height="199.29" style="fill:white;"/>
        </g>
        <g transform="matrix(0.910328,0,2.77556e-17,0.609205,802.287,317.727)">
            <rect x="14.331" y="302.936" width="53.798" height="199.29" style="fill:white;"/>
        </g>
        <g transform="matrix(1.59581,0,-6.93889e-18,0.243682,807.748,354.25)">
            <rect x="14.331" y="302.936" width="53.798" height="199.29" style="fill:white;"/>
        </g>
        <g transform="matrix(1.02977,-5.71637e-17,-1.00663,1.05045,1362.28,91.6969)">
            <rect x="14.331" y="302.936" width="53.798" height="199.29" style="fill:rgb(224,165,255);"/>
        </g>
        <g transform="matrix(2.77598,0,-0.181116,0.189,922.661,524.337)">
            <rect x="14.331" y="302.936" width="53.798" height="199.29" style="fill:rgb(224,165,255);"/>
        </g>
        <g transform="matrix(16.333,-1.0153e-15,-0.181116,0.189,-135.964,665.031)">
            <rect x="14.331" y="302.936" width="53.798" height="199.29" style="fill:rgb(224,165,255);"/>
        </g>
        <g transform="matrix(1.02977,0,-0.85093,0.894972,1244.54,310.473)">
            <rect x="14.331" y="302.936" width="53.798" height="199.29" style="fill:rgb(224,165,255);"/>
        </g>
        <g transform="matrix(1.59581,0,-6.93889e-18,0.243682,623.85,428.457)">
            <rect x="14.331" y="302.936" width="53.798" height="199.29" style="fill:white;"/>
        </g>
        <g transform="matrix(1.59581,0,-6.93889e-18,0.243682,755.586,428.457)">
            <rect x="14.331" y="302.936" width="53.798" height="199.29" style="fill:white;"/>
        </g>
        <g transform="matrix(1.59581,0,-6.93889e-18,0.243682,623.85,501.302)">
            <rect x="14.331" y="302.936" width="53.798" height="199.29" style="fill:white;"/>
        </g>
        <g transform="matrix(1.59581,0,-6.93889e-18,0.243682,755.586,501.302)">
            <rect x="14.331" y="302.936" width="53.798" height="199.29" style="fill:white;"/>
        </g>
        <g transform="matrix(1.59581,0,-6.93889e-18,0.243682,623.85,574.147)">
            <rect x="14.331" y="302.936" width="53.798" height="199.29" style="fill:white;"/>
        </g>
        <g transform="matrix(1.59581,0,-6.93889e-18,0.243682,808.297,208.56)">
            <rect x="14.331" y="302.936" width="53.798" height="199.29" style="fill:white;"/>
        </g>
        <g transform="matrix(0.910328,0,0.469447,0.974728,313.528,-12.9003)">
            <rect x="14.331" y="302.936" width="53.798" height="199.29" style="fill:white;"/>
        </g>
        <g transform="matrix(0.910328,0,-2.77556e-17,0.974728,665.008,-12.9003)">
            <rect x="14.331" y="302.936" width="53.798" height="199.29" style="fill:rgb(255,168,124);"/>
        </g>
        <g transform="matrix(0.910328,0,0.469447,0.974728,522.796,-12.9003)">
            <rect x="14.331" y="302.936" width="53.798" height="199.29" style="fill:rgb(255,168,124);"/>
        </g>
        <g transform="matrix(0.910328,0,0.234724,0.487364,698.589,231.867)">
            <rect x="14.331" y="302.936" width="53.798" height="199.29" style="fill:white;stroke:white;stroke-width:0.01px;"/>
        </g>
        <g transform="matrix(0.910328,0,0.234724,0.487364,703.948,451.764)">
            <rect x="14.331" y="302.936" width="53.798" height="199.29" style="fill:white;"/>
        </g>
        <g transform="matrix(0.910328,-5.55112e-17,0.240233,-0.487364,696.92,527.146)">
            <rect x="14.331" y="302.936" width="53.798" height="199.29" style="fill:white;stroke:white;stroke-width:0.01px;"/>
        </g>
        <g transform="matrix(0.910328,0,0.234724,0.487364,421.482,451.764)">
            <rect x="14.331" y="302.936" width="53.798" height="199.29" style="fill:rgb(187,255,195);"/>
        </g>
        <g transform="matrix(0.910328,-5.55112e-17,0.240233,-0.487364,419.813,747.044)">
            <rect x="14.331" y="302.936" width="53.798" height="199.29" style="fill:rgb(187,255,195);"/>
        </g>
        <g transform="matrix(0.910328,0,-2.77556e-17,0.974728,304.221,-12.9003)">
            <rect x="14.331" y="302.936" width="53.798" height="199.29" style="fill:white;"/>
        </g>
        <g transform="matrix(0.910328,0,0.469447,0.974728,162.008,-12.9003)">
            <rect x="14.331" y="302.936" width="53.798" height="199.29" style="fill:white;"/>
        </g>
    </g>
</svg>
