<?xml version="1.0" encoding="UTF-8" standalone="no"?>
<!DOCTYPE svg PUBLIC "-//W3C//DTD SVG 1.1//EN" "http://www.w3.org/Graphics/SVG/1.1/DTD/svg11.dtd">
<svg width="100%" height="100%" viewBox="0 0 846 192" version="1.1" xmlns="http://www.w3.org/2000/svg" xmlns:xlink="http://www.w3.org/1999/xlink" xml:space="preserve" xmlns:serif="http://www.serif.com/" style="fill-rule:evenodd;clip-rule:evenodd;stroke-linejoin:round;stroke-miterlimit:2;">
    <g transform="matrix(1,0,0,1,-4477,-444)">
        <g>
            <g transform="matrix(1,0,0,1,3539.83,92.0504)">
                <g transform="matrix(0.894427,-0.447214,1.11803,0.559017,322.015,-32.0504)">
                    <rect x="-143.108" y="686.92" width="143.108" height="114.487" style="fill:rgb(255,175,240);"/>
                </g>
                <g transform="matrix(1,0,0,1,322.015,-32.0504)">
                    <path d="M640,448L616,500L768,576L768,512" style="fill:rgb(255,79,221);"/>
                </g>
                <g transform="matrix(1,0,0,1,322.015,-32.0504)">
                    <path d="M768,512L768,576L920,500L896,448" style="fill:rgb(139,35,118);"/>
                </g>
                <g transform="matrix(0.175467,-0.0877334,0.175467,0.0877334,612.163,522.918)">
                    <path d="M1974.96,940C1974.29,940 1973.63,939.969 1972.96,939.98C1935.42,940.625 1923.31,980 1874.96,980C1819.77,980 1774.46,935.189 1774.96,880C1775.78,789.608 1873.9,785.065 1876.96,780.02C1901.44,739.712 1926.61,700 1974.96,700C2023.31,700 2048.49,739.712 2072.96,780.02C2076.03,785.065 2174.14,789.608 2174.96,880C2175.46,935.189 2130.15,980 2074.96,980C2026.61,980 2014.5,940.625 1976.96,939.98C1976.3,939.969 1975.63,940 1974.96,940ZM1794.39,653.781C1816.88,671.802 1859.81,747.289 1815.98,766.16C1772.01,785.092 1705.84,716.889 1702.99,692.519C1698.4,653.293 1766.15,631.153 1794.39,653.781ZM2158.17,657.592C2136.87,674.805 2096.16,746.854 2137.62,764.809C2179.2,782.822 2241.9,717.697 2244.62,694.449C2249,657.027 2184.92,635.979 2158.17,657.592ZM1925.56,543.272C1941.44,572.749 1957.19,678.506 1907.12,686.097C1856.88,693.713 1815.52,588.698 1821.34,558.36C1830.69,509.526 1905.61,506.259 1925.56,543.272ZM2024.31,543.272C2008.42,572.749 1992.67,678.506 2042.75,686.097C2092.99,693.713 2134.34,588.698 2128.53,558.36C2119.17,509.526 2044.25,506.259 2024.31,543.272Z" style="fill:white;"/>
                </g>
            </g>
            <g transform="matrix(1.20127,0,0,1.20127,-730.674,-150.012)">
                <g transform="matrix(108.696,0,0,108.696,4680,600)">
                    <path d="M0.496,-0.629C0.484,-0.642 0.465,-0.643 0.452,-0.631L0.128,-0.333L0.128,-0.609C0.128,-0.626 0.113,-0.64 0.097,-0.64C0.079,-0.64 0.065,-0.626 0.065,-0.609L0.065,-0.031C0.065,-0.014 0.079,0 0.097,0C0.113,0 0.128,-0.014 0.128,-0.031L0.128,-0.248L0.225,-0.337L0.441,-0.014C0.451,0.001 0.47,0.004 0.485,-0.006C0.499,-0.015 0.503,-0.034 0.493,-0.05L0.272,-0.38L0.495,-0.584C0.509,-0.597 0.508,-0.617 0.496,-0.629Z" style="fill-rule:nonzero;"/>
                </g>
                <g transform="matrix(108.696,0,0,108.696,4737.66,600)">
                    <path d="M0.081,-0.541C0.102,-0.541 0.12,-0.559 0.12,-0.579C0.12,-0.6 0.102,-0.617 0.081,-0.617C0.061,-0.617 0.044,-0.6 0.044,-0.579C0.044,-0.559 0.061,-0.541 0.081,-0.541ZM0.113,-0.44C0.113,-0.457 0.099,-0.471 0.082,-0.471C0.065,-0.471 0.05,-0.457 0.05,-0.44L0.05,-0.032C0.05,-0.014 0.065,0 0.082,0C0.099,0 0.113,-0.014 0.113,-0.032L0.113,-0.44Z" style="fill-rule:nonzero;"/>
                </g>
                <g transform="matrix(108.696,0,0,108.696,4755.33,600)">
                    <path d="M0.156,-0.47L0.156,-0.609C0.156,-0.627 0.142,-0.64 0.125,-0.64C0.108,-0.64 0.094,-0.627 0.094,-0.609L0.094,-0.47L0.039,-0.47C0.022,-0.47 0.008,-0.456 0.008,-0.439C0.008,-0.422 0.022,-0.408 0.039,-0.408L0.094,-0.408L0.094,-0.031C0.094,-0.014 0.108,0 0.125,0C0.142,0 0.156,-0.014 0.156,-0.031L0.156,-0.408L0.223,-0.408C0.241,-0.408 0.254,-0.421 0.254,-0.439C0.254,-0.456 0.241,-0.47 0.223,-0.47L0.156,-0.47Z" style="fill-rule:nonzero;"/>
                </g>
                <g transform="matrix(108.696,0,0,108.696,4783.91,600)">
                    <path d="M0.156,-0.47L0.156,-0.609C0.156,-0.627 0.142,-0.64 0.125,-0.64C0.108,-0.64 0.094,-0.627 0.094,-0.609L0.094,-0.47L0.039,-0.47C0.022,-0.47 0.008,-0.456 0.008,-0.439C0.008,-0.422 0.022,-0.408 0.039,-0.408L0.094,-0.408L0.094,-0.031C0.094,-0.014 0.108,0 0.125,0C0.142,0 0.156,-0.014 0.156,-0.031L0.156,-0.408L0.223,-0.408C0.241,-0.408 0.254,-0.421 0.254,-0.439C0.254,-0.456 0.241,-0.47 0.223,-0.47L0.156,-0.47Z" style="fill-rule:nonzero;"/>
                </g>
                <g transform="matrix(108.696,0,0,108.696,4812.5,600)">
                    <path d="M0.415,-0.468C0.399,-0.475 0.381,-0.467 0.374,-0.451L0.222,-0.105L0.071,-0.451C0.063,-0.468 0.045,-0.476 0.029,-0.468C0.013,-0.461 0.006,-0.443 0.013,-0.426L0.188,-0.029L0.119,0.13C0.111,0.147 0.115,0.164 0.131,0.171C0.148,0.179 0.166,0.171 0.174,0.155L0.248,-0.013L0.25,-0.017L0.431,-0.426C0.439,-0.443 0.432,-0.461 0.415,-0.468Z" style="fill-rule:nonzero;"/>
                </g>
                <g transform="matrix(108.696,0,0,108.696,4885.38,600)">
                    <path d="M0.577,-0.548C0.513,-0.612 0.43,-0.645 0.346,-0.645C0.157,-0.645 0.022,-0.49 0.022,-0.319C0.022,-0.139 0.166,0.006 0.345,0.006C0.429,0.006 0.511,-0.024 0.576,-0.089C0.588,-0.1 0.588,-0.121 0.576,-0.133C0.564,-0.144 0.544,-0.144 0.531,-0.132C0.478,-0.079 0.413,-0.056 0.345,-0.057C0.196,-0.057 0.084,-0.178 0.084,-0.319C0.084,-0.465 0.201,-0.582 0.346,-0.582C0.414,-0.582 0.48,-0.556 0.533,-0.504C0.544,-0.492 0.565,-0.492 0.577,-0.504C0.589,-0.517 0.589,-0.536 0.577,-0.548Z" style="fill-rule:nonzero;"/>
                </g>
                <g transform="matrix(108.696,0,0,108.696,4951.47,600)">
                    <path d="M0.498,-0.236C0.496,-0.367 0.391,-0.471 0.26,-0.471C0.129,-0.471 0.022,-0.365 0.022,-0.232C0.022,-0.101 0.129,0.006 0.26,0.006C0.329,0.006 0.391,-0.027 0.435,-0.075L0.435,-0.033C0.435,-0.015 0.448,0 0.466,0C0.484,0 0.498,-0.015 0.498,-0.033L0.498,-0.236ZM0.084,-0.232C0.084,-0.33 0.162,-0.408 0.26,-0.408C0.359,-0.408 0.435,-0.33 0.435,-0.232C0.435,-0.136 0.359,-0.057 0.26,-0.057C0.162,-0.057 0.084,-0.136 0.084,-0.232Z" style="fill-rule:nonzero;"/>
                </g>
                <g transform="matrix(108.696,0,0,108.696,5011.03,600)">
                    <path d="M0.156,-0.47L0.156,-0.609C0.156,-0.627 0.142,-0.64 0.125,-0.64C0.108,-0.64 0.094,-0.627 0.094,-0.609L0.094,-0.47L0.039,-0.47C0.022,-0.47 0.008,-0.456 0.008,-0.439C0.008,-0.422 0.022,-0.408 0.039,-0.408L0.094,-0.408L0.094,-0.031C0.094,-0.014 0.108,0 0.125,0C0.142,0 0.156,-0.014 0.156,-0.031L0.156,-0.408L0.223,-0.408C0.241,-0.408 0.254,-0.421 0.254,-0.439C0.254,-0.456 0.241,-0.47 0.223,-0.47L0.156,-0.47Z" style="fill-rule:nonzero;"/>
                </g>
            </g>
        </g>
    </g>
</svg>
