<?xml version="1.0" encoding="UTF-8" standalone="no"?>
<!DOCTYPE svg PUBLIC "-//W3C//DTD SVG 1.1//EN" "http://www.w3.org/Graphics/SVG/1.1/DTD/svg11.dtd">
<svg width="100%" height="100%" viewBox="0 0 305 192" version="1.1" xmlns="http://www.w3.org/2000/svg" xmlns:xlink="http://www.w3.org/1999/xlink" xml:space="preserve" xmlns:serif="http://www.serif.com/" style="fill-rule:evenodd;clip-rule:evenodd;stroke-linejoin:round;stroke-miterlimit:2;">
    <g transform="matrix(1,0,0,1,-4477,-444)">
        <g transform="matrix(1,0,0,1,3539.83,92.0504)">
            <g transform="matrix(0.894427,-0.447214,1.11803,0.559017,322.015,-32.0504)">
                <rect x="-143.108" y="686.92" width="143.108" height="114.487" style="fill:rgb(255,175,240);"/>
            </g>
            <g transform="matrix(1,0,0,1,322.015,-32.0504)">
                <path d="M640,448L616,500L768,576L768,512" style="fill:rgb(255,79,221);"/>
            </g>
            <g transform="matrix(1,0,0,1,322.015,-32.0504)">
                <path d="M768,512L768,576L920,500L896,448" style="fill:rgb(139,35,118);"/>
            </g>
            <g transform="matrix(0.175467,-0.0877334,0.175467,0.0877334,612.163,522.918)">
                <path d="M1974.96,940C1974.29,940 1973.63,939.969 1972.96,939.98C1935.42,940.625 1923.31,980 1874.96,980C1819.77,980 1774.46,935.189 1774.96,880C1775.78,789.608 1873.9,785.065 1876.96,780.02C1901.44,739.712 1926.61,700 1974.96,700C2023.31,700 2048.49,739.712 2072.96,780.02C2076.03,785.065 2174.14,789.608 2174.96,880C2175.46,935.189 2130.15,980 2074.96,980C2026.61,980 2014.5,940.625 1976.96,939.98C1976.3,939.969 1975.63,940 1974.96,940ZM1794.39,653.781C1816.88,671.802 1859.81,747.289 1815.98,766.16C1772.01,785.092 1705.84,716.889 1702.99,692.519C1698.4,653.293 1766.15,631.153 1794.39,653.781ZM2158.17,657.592C2136.87,674.805 2096.16,746.854 2137.62,764.809C2179.2,782.822 2241.9,717.697 2244.62,694.449C2249,657.027 2184.92,635.979 2158.17,657.592ZM1925.56,543.272C1941.44,572.749 1957.19,678.506 1907.12,686.097C1856.88,693.713 1815.52,588.698 1821.34,558.36C1830.69,509.526 1905.61,506.259 1925.56,543.272ZM2024.31,543.272C2008.42,572.749 1992.67,678.506 2042.75,686.097C2092.99,693.713 2134.34,588.698 2128.53,558.36C2119.17,509.526 2044.25,506.259 2024.31,543.272Z" style="fill:white;"/>
            </g>
        </g>
    </g>
</svg>
